<mxfile host="Electron" agent="Mozilla/5.0 (X11; Linux x86_64) AppleWebKit/537.36 (KHTML, like Gecko) draw.io/28.0.4 Chrome/138.0.7204.97 Electron/37.2.1 Safari/537.36" version="28.0.4">
  <diagram name="Page-1" id="pjoQ1RYfz4go8VmVCMUc">
    <mxGraphModel dx="2997" dy="2405" grid="1" gridSize="10" guides="1" tooltips="1" connect="1" arrows="1" fold="1" page="1" pageScale="1" pageWidth="850" pageHeight="1100" math="0" shadow="0">
      <root>
        <mxCell id="0" />
        <mxCell id="1" parent="0" />
        <mxCell id="yQT3kaWr7d13z7m8vqf4-37" value="" style="rounded=0;whiteSpace=wrap;html=1;" vertex="1" parent="1">
          <mxGeometry x="1100" y="340" width="160" height="410" as="geometry" />
        </mxCell>
        <mxCell id="yQT3kaWr7d13z7m8vqf4-36" value="" style="rounded=0;whiteSpace=wrap;html=1;" vertex="1" parent="1">
          <mxGeometry x="860" y="510" width="160" height="240" as="geometry" />
        </mxCell>
        <mxCell id="yQT3kaWr7d13z7m8vqf4-29" value="" style="rounded=0;whiteSpace=wrap;html=1;movable=0;resizable=0;rotatable=0;deletable=0;editable=0;locked=1;connectable=0;" vertex="1" parent="1">
          <mxGeometry x="70" y="-11" width="350" height="401" as="geometry" />
        </mxCell>
        <mxCell id="yQT3kaWr7d13z7m8vqf4-13" value="" style="rounded=0;whiteSpace=wrap;html=1;movable=1;resizable=1;rotatable=1;deletable=1;editable=1;locked=0;connectable=1;" vertex="1" parent="1">
          <mxGeometry x="-287" y="-10" width="310" height="401" as="geometry" />
        </mxCell>
        <mxCell id="yQT3kaWr7d13z7m8vqf4-1" value="" style="rounded=0;whiteSpace=wrap;html=1;movable=0;resizable=0;rotatable=0;deletable=0;editable=0;locked=1;connectable=0;" vertex="1" parent="1">
          <mxGeometry x="-570" y="390" width="593" height="420" as="geometry" />
        </mxCell>
        <mxCell id="3qK1IjJWASK3sHePoez1-112" style="edgeStyle=orthogonalEdgeStyle;rounded=0;orthogonalLoop=1;jettySize=auto;html=1;" parent="1" source="KAJICkyDAxbRjoZyObMi-22" target="3qK1IjJWASK3sHePoez1-11" edge="1">
          <mxGeometry relative="1" as="geometry" />
        </mxCell>
        <mxCell id="yQT3kaWr7d13z7m8vqf4-52" style="edgeStyle=orthogonalEdgeStyle;rounded=0;orthogonalLoop=1;jettySize=auto;html=1;" edge="1" parent="1" source="KAJICkyDAxbRjoZyObMi-22">
          <mxGeometry relative="1" as="geometry">
            <mxPoint x="940" y="390" as="targetPoint" />
          </mxGeometry>
        </mxCell>
        <mxCell id="KAJICkyDAxbRjoZyObMi-22" value="Archipelago&lt;div&gt;Core Client&lt;/div&gt;" style="rounded=0;whiteSpace=wrap;html=1;" parent="1" vertex="1">
          <mxGeometry x="880" y="535" width="120" height="60" as="geometry" />
        </mxCell>
        <mxCell id="3qK1IjJWASK3sHePoez1-116" style="edgeStyle=orthogonalEdgeStyle;rounded=0;orthogonalLoop=1;jettySize=auto;html=1;" parent="1" source="KAJICkyDAxbRjoZyObMi-39" target="KAJICkyDAxbRjoZyObMi-22" edge="1">
          <mxGeometry relative="1" as="geometry">
            <Array as="points">
              <mxPoint x="1090" y="565" />
              <mxPoint x="1090" y="565" />
            </Array>
          </mxGeometry>
        </mxCell>
        <mxCell id="KAJICkyDAxbRjoZyObMi-39" value="Archipelago Vanilla&lt;div&gt;(built for specific&lt;/div&gt;&lt;div&gt;game version)&lt;/div&gt;" style="rounded=0;whiteSpace=wrap;html=1;" parent="1" vertex="1">
          <mxGeometry x="1120.25" y="361" width="120" height="80" as="geometry" />
        </mxCell>
        <mxCell id="3qK1IjJWASK3sHePoez1-117" style="edgeStyle=orthogonalEdgeStyle;rounded=0;orthogonalLoop=1;jettySize=auto;html=1;entryX=1;entryY=0.5;entryDx=0;entryDy=0;" parent="1" source="KAJICkyDAxbRjoZyObMi-42" target="KAJICkyDAxbRjoZyObMi-22" edge="1">
          <mxGeometry relative="1" as="geometry" />
        </mxCell>
        <mxCell id="KAJICkyDAxbRjoZyObMi-42" value="KubeJS for Archipelago" style="rounded=0;whiteSpace=wrap;html=1;" parent="1" vertex="1">
          <mxGeometry x="1120.25" y="456" width="120" height="60" as="geometry" />
        </mxCell>
        <mxCell id="KAJICkyDAxbRjoZyObMi-45" value="&lt;div&gt;Generates/hosts&lt;/div&gt;&lt;div&gt;&lt;span style=&quot;background-color: transparent; color: light-dark(rgb(0, 0, 0), rgb(255, 255, 255));&quot;&gt;headless server&lt;/span&gt;&lt;/div&gt;" style="text;html=1;align=center;verticalAlign=middle;whiteSpace=wrap;rounded=0;" parent="1" vertex="1">
          <mxGeometry x="560" y="526" width="110" height="40" as="geometry" />
        </mxCell>
        <mxCell id="3qK1IjJWASK3sHePoez1-5" value="Archipelago WebHost&lt;br&gt;(see Archipelago GitHub&#39;s&lt;div&gt;/docs/network diagram&lt;/div&gt;" style="image;aspect=fixed;perimeter=ellipsePerimeter;html=1;align=center;shadow=0;dashed=0;spacingTop=3;image=img/lib/active_directory/web_server.svg;" parent="1" vertex="1">
          <mxGeometry x="920" y="-10" width="50" height="62.5" as="geometry" />
        </mxCell>
        <mxCell id="3qK1IjJWASK3sHePoez1-140" style="edgeStyle=orthogonalEdgeStyle;rounded=0;orthogonalLoop=1;jettySize=auto;html=1;" parent="1" source="3qK1IjJWASK3sHePoez1-9" edge="1">
          <mxGeometry relative="1" as="geometry">
            <mxPoint x="940" y="112" as="targetPoint" />
          </mxGeometry>
        </mxCell>
        <mxCell id="3qK1IjJWASK3sHePoez1-9" value="Archipelago Server" style="image;points=[];aspect=fixed;html=1;align=center;shadow=0;dashed=0;image=img/lib/allied_telesis/storage/Datacenter_Server_Rack.svg;" parent="1" vertex="1">
          <mxGeometry x="895.9" y="182" width="88.2" height="178.8" as="geometry" />
        </mxCell>
        <mxCell id="3qK1IjJWASK3sHePoez1-10" value="Relays information to" style="text;html=1;align=right;verticalAlign=middle;resizable=0;points=[];autosize=1;strokeColor=none;fillColor=none;" parent="1" vertex="1">
          <mxGeometry x="790" y="132.00000000000003" width="140" height="30" as="geometry" />
        </mxCell>
        <mxCell id="3qK1IjJWASK3sHePoez1-113" style="edgeStyle=orthogonalEdgeStyle;rounded=0;orthogonalLoop=1;jettySize=auto;html=1;" parent="1" source="3qK1IjJWASK3sHePoez1-15" target="3qK1IjJWASK3sHePoez1-11" edge="1">
          <mxGeometry relative="1" as="geometry" />
        </mxCell>
        <mxCell id="yQT3kaWr7d13z7m8vqf4-30" style="edgeStyle=orthogonalEdgeStyle;rounded=0;orthogonalLoop=1;jettySize=auto;html=1;entryX=0.5;entryY=0;entryDx=0;entryDy=0;" edge="1" parent="1" source="3qK1IjJWASK3sHePoez1-19" target="3qK1IjJWASK3sHePoez1-15">
          <mxGeometry relative="1" as="geometry" />
        </mxCell>
        <mxCell id="3qK1IjJWASK3sHePoez1-19" value="&lt;div&gt;&lt;span style=&quot;font-weight: normal;&quot;&gt;.apmcbundle&lt;/span&gt;&lt;/div&gt;" style="shape=folder;fontStyle=1;tabWidth=80;tabHeight=30;tabPosition=left;html=1;boundedLbl=1;whiteSpace=wrap;" parent="1" vertex="1">
          <mxGeometry x="142.50000000000003" y="120.50000000000001" width="127" height="110" as="geometry" />
        </mxCell>
        <mxCell id="yQT3kaWr7d13z7m8vqf4-27" style="edgeStyle=orthogonalEdgeStyle;rounded=0;orthogonalLoop=1;jettySize=auto;html=1;" edge="1" parent="1" source="3qK1IjJWASK3sHePoez1-20" target="3qK1IjJWASK3sHePoez1-19">
          <mxGeometry relative="1" as="geometry" />
        </mxCell>
        <mxCell id="3qK1IjJWASK3sHePoez1-20" value="&lt;div&gt;&lt;span style=&quot;background-color: transparent; color: light-dark(rgb(0, 0, 0), rgb(255, 255, 255));&quot;&gt;Archipelago&lt;/span&gt;&lt;/div&gt;server info&lt;div&gt;and port&lt;/div&gt;" style="shape=document;whiteSpace=wrap;html=1;boundedLbl=1;" parent="1" vertex="1">
          <mxGeometry x="215.00000000000003" y="275.5" width="95" height="80" as="geometry" />
        </mxCell>
        <mxCell id="JrtcDTEkCT0BP77rKWEM-3" style="edgeStyle=orthogonalEdgeStyle;rounded=0;orthogonalLoop=1;jettySize=auto;html=1;entryX=0;entryY=0.5;entryDx=0;entryDy=0;" parent="1" source="3qK1IjJWASK3sHePoez1-47" target="3qK1IjJWASK3sHePoez1-82" edge="1">
          <mxGeometry relative="1" as="geometry" />
        </mxCell>
        <mxCell id="3qK1IjJWASK3sHePoez1-47" value="Modded logic&lt;div&gt;(.isl DSL)&lt;/div&gt;" style="shape=document;whiteSpace=wrap;html=1;boundedLbl=1;" parent="1" vertex="1">
          <mxGeometry x="-350" y="415" width="150" height="90" as="geometry" />
        </mxCell>
        <mxCell id="3qK1IjJWASK3sHePoez1-90" style="edgeStyle=orthogonalEdgeStyle;rounded=0;orthogonalLoop=1;jettySize=auto;html=1;" parent="1" source="3qK1IjJWASK3sHePoez1-50" target="3qK1IjJWASK3sHePoez1-47" edge="1">
          <mxGeometry relative="1" as="geometry" />
        </mxCell>
        <mxCell id="3qK1IjJWASK3sHePoez1-91" style="edgeStyle=orthogonalEdgeStyle;rounded=0;orthogonalLoop=1;jettySize=auto;html=1;" parent="1" source="3qK1IjJWASK3sHePoez1-50" target="3qK1IjJWASK3sHePoez1-86" edge="1">
          <mxGeometry relative="1" as="geometry" />
        </mxCell>
        <mxCell id="3qK1IjJWASK3sHePoez1-92" style="edgeStyle=orthogonalEdgeStyle;rounded=0;orthogonalLoop=1;jettySize=auto;html=1;" parent="1" source="3qK1IjJWASK3sHePoez1-50" target="3qK1IjJWASK3sHePoez1-85" edge="1">
          <mxGeometry relative="1" as="geometry" />
        </mxCell>
        <mxCell id="3qK1IjJWASK3sHePoez1-50" value="Raw game data export&lt;div&gt;(massive .json&lt;/div&gt;&lt;div&gt;generated&amp;nbsp;&lt;span style=&quot;background-color: transparent; color: light-dark(rgb(0, 0, 0), rgb(255, 255, 255));&quot;&gt;from vanilla and&amp;nbsp;&lt;/span&gt;&lt;span style=&quot;background-color: transparent; color: light-dark(rgb(0, 0, 0), rgb(255, 255, 255));&quot;&gt;modded data)&lt;/span&gt;&lt;/div&gt;" style="shape=document;whiteSpace=wrap;html=1;boundedLbl=1;" parent="1" vertex="1">
          <mxGeometry x="-551" y="475" width="140" height="180" as="geometry" />
        </mxCell>
        <mxCell id="3qK1IjJWASK3sHePoez1-62" value="" style="group" parent="1" vertex="1" connectable="0">
          <mxGeometry x="102" y="470" width="208" height="190" as="geometry" />
        </mxCell>
        <mxCell id="3qK1IjJWASK3sHePoez1-61" value="&lt;div&gt;&lt;br&gt;&lt;/div&gt;&lt;div&gt;&lt;br&gt;&lt;/div&gt;&lt;div&gt;&lt;span style=&quot;background-color: transparent; color: light-dark(rgb(0, 0, 0), rgb(255, 255, 255));&quot;&gt;Archipelago Generator&lt;br&gt;&lt;/span&gt;&lt;/div&gt;" style="shape=cube;whiteSpace=wrap;html=1;boundedLbl=1;backgroundOutline=1;darkOpacity=0.05;darkOpacity2=0.1;" parent="3qK1IjJWASK3sHePoez1-62" vertex="1">
          <mxGeometry width="208" height="190" as="geometry" />
        </mxCell>
        <mxCell id="3qK1IjJWASK3sHePoez1-44" value="" style="sketch=0;outlineConnect=0;fillColor=#f9f7ed;strokeColor=#36393d;dashed=0;verticalLabelPosition=bottom;verticalAlign=top;align=center;html=1;fontSize=12;fontStyle=0;aspect=fixed;pointerEvents=1;shape=mxgraph.aws4.gear;" parent="3qK1IjJWASK3sHePoez1-62" vertex="1">
          <mxGeometry x="98" y="70" width="30" height="30" as="geometry" />
        </mxCell>
        <mxCell id="3qK1IjJWASK3sHePoez1-72" style="edgeStyle=orthogonalEdgeStyle;rounded=0;orthogonalLoop=1;jettySize=auto;html=1;" parent="1" source="3qK1IjJWASK3sHePoez1-61" target="3qK1IjJWASK3sHePoez1-15" edge="1">
          <mxGeometry relative="1" as="geometry" />
        </mxCell>
        <mxCell id="3qK1IjJWASK3sHePoez1-73" value="Provided by&lt;div&gt;vanilla APWorld&lt;/div&gt;" style="text;html=1;align=center;verticalAlign=middle;resizable=0;points=[];autosize=1;strokeColor=none;fillColor=none;" parent="1" vertex="1">
          <mxGeometry x="318" y="525" width="110" height="40" as="geometry" />
        </mxCell>
        <mxCell id="3qK1IjJWASK3sHePoez1-83" style="edgeStyle=orthogonalEdgeStyle;rounded=0;orthogonalLoop=1;jettySize=auto;html=1;" parent="1" source="3qK1IjJWASK3sHePoez1-82" target="3qK1IjJWASK3sHePoez1-61" edge="1">
          <mxGeometry relative="1" as="geometry" />
        </mxCell>
        <mxCell id="JrtcDTEkCT0BP77rKWEM-6" style="edgeStyle=orthogonalEdgeStyle;rounded=0;orthogonalLoop=1;jettySize=auto;html=1;" parent="1" source="3qK1IjJWASK3sHePoez1-82" target="JrtcDTEkCT0BP77rKWEM-4" edge="1">
          <mxGeometry relative="1" as="geometry">
            <Array as="points">
              <mxPoint x="-80" y="630" />
              <mxPoint x="-80" y="630" />
            </Array>
          </mxGeometry>
        </mxCell>
        <UserObject label="Root&#xa;__init__.py" link="Root&#xa;__init__.py" id="3qK1IjJWASK3sHePoez1-82">
          <mxCell style="rounded=0;whiteSpace=wrap;html=1;" parent="1" vertex="1">
            <mxGeometry x="-112" y="530" width="120" height="70" as="geometry" />
          </mxCell>
        </UserObject>
        <mxCell id="JrtcDTEkCT0BP77rKWEM-2" style="edgeStyle=orthogonalEdgeStyle;rounded=0;orthogonalLoop=1;jettySize=auto;html=1;entryX=0;entryY=0.5;entryDx=0;entryDy=0;" parent="1" source="3qK1IjJWASK3sHePoez1-85" target="3qK1IjJWASK3sHePoez1-82" edge="1">
          <mxGeometry relative="1" as="geometry" />
        </mxCell>
        <mxCell id="3qK1IjJWASK3sHePoez1-85" value="Modded logic package&lt;div&gt;(such as FTB Quests)&lt;br&gt;&lt;div&gt;(optional .py)&lt;/div&gt;&lt;/div&gt;" style="rounded=0;whiteSpace=wrap;html=1;" parent="1" vertex="1">
          <mxGeometry x="-350" y="627" width="150" height="74" as="geometry" />
        </mxCell>
        <mxCell id="3qK1IjJWASK3sHePoez1-87" style="edgeStyle=orthogonalEdgeStyle;rounded=0;orthogonalLoop=1;jettySize=auto;html=1;" parent="1" source="3qK1IjJWASK3sHePoez1-86" target="3qK1IjJWASK3sHePoez1-82" edge="1">
          <mxGeometry relative="1" as="geometry" />
        </mxCell>
        <mxCell id="3qK1IjJWASK3sHePoez1-86" value="Vanilla logic package&lt;div&gt;for specific game version&lt;br&gt;&lt;div&gt;(optional .py)&lt;/div&gt;&lt;/div&gt;" style="rounded=0;whiteSpace=wrap;html=1;" parent="1" vertex="1">
          <mxGeometry x="-350" y="528" width="150" height="74" as="geometry" />
        </mxCell>
        <mxCell id="3qK1IjJWASK3sHePoez1-89" value="imported,&lt;div&gt;parsed and&lt;/div&gt;&lt;div&gt;overlayed by&lt;/div&gt;" style="text;html=1;align=left;verticalAlign=middle;resizable=0;points=[];autosize=1;strokeColor=none;fillColor=none;" parent="1" vertex="1">
          <mxGeometry x="-151" y="457" width="90" height="60" as="geometry" />
        </mxCell>
        <mxCell id="3qK1IjJWASK3sHePoez1-94" value="referenced by" style="text;html=1;align=center;verticalAlign=middle;resizable=0;points=[];autosize=1;strokeColor=none;fillColor=none;" parent="1" vertex="1">
          <mxGeometry x="-484" y="632" width="100" height="30" as="geometry" />
        </mxCell>
        <mxCell id="3qK1IjJWASK3sHePoez1-96" value="" style="group" parent="1" vertex="1" connectable="0">
          <mxGeometry x="670" y="500" width="160" height="221" as="geometry" />
        </mxCell>
        <mxCell id="3qK1IjJWASK3sHePoez1-11" value="" style="image;points=[];aspect=fixed;html=1;align=center;shadow=0;dashed=0;image=img/lib/allied_telesis/computer_and_terminals/Personal_Computer.svg;" parent="3qK1IjJWASK3sHePoez1-96" vertex="1">
          <mxGeometry x="31.66999999999996" width="96.66" height="131" as="geometry" />
        </mxCell>
        <mxCell id="3qK1IjJWASK3sHePoez1-13" value="&lt;div&gt;Minecraft server&lt;/div&gt;&lt;div&gt;(default: vanilla headless,&lt;/div&gt;&lt;div&gt;&lt;span style=&quot;background-color: transparent; color: light-dark(rgb(0, 0, 0), rgb(255, 255, 255));&quot;&gt;or client, depending on&lt;/span&gt;&lt;/div&gt;&lt;div&gt;installation type)&lt;/div&gt;" style="text;html=1;align=center;verticalAlign=middle;resizable=0;points=[];autosize=1;strokeColor=none;fillColor=none;" parent="3qK1IjJWASK3sHePoez1-96" vertex="1">
          <mxGeometry y="141" width="160" height="70" as="geometry" />
        </mxCell>
        <mxCell id="3qK1IjJWASK3sHePoez1-100" value="Bundle is imported into" style="text;html=1;align=center;verticalAlign=middle;resizable=0;points=[];autosize=1;strokeColor=none;fillColor=none;" parent="1" vertex="1">
          <mxGeometry x="270" y="150" width="150" height="30" as="geometry" />
        </mxCell>
        <mxCell id="3qK1IjJWASK3sHePoez1-118" style="edgeStyle=orthogonalEdgeStyle;rounded=0;orthogonalLoop=1;jettySize=auto;html=1;entryX=1;entryY=0.5;entryDx=0;entryDy=0;" parent="1" source="3qK1IjJWASK3sHePoez1-115" target="KAJICkyDAxbRjoZyObMi-22" edge="1">
          <mxGeometry relative="1" as="geometry" />
        </mxCell>
        <mxCell id="3qK1IjJWASK3sHePoez1-115" value="Other Archipelago&lt;div&gt;implementations&lt;/div&gt;" style="rounded=0;whiteSpace=wrap;html=1;" parent="1" vertex="1">
          <mxGeometry x="1120.25" y="534.15" width="120" height="60" as="geometry" />
        </mxCell>
        <mxCell id="3qK1IjJWASK3sHePoez1-119" value="Registered&lt;div&gt;&lt;span style=&quot;background-color: transparent; color: light-dark(rgb(0, 0, 0), rgb(255, 255, 255));&quot;&gt;by&lt;/span&gt;&lt;/div&gt;" style="text;html=1;align=center;verticalAlign=middle;resizable=0;points=[];autosize=1;strokeColor=none;fillColor=none;" parent="1" vertex="1">
          <mxGeometry x="1020" y="567" width="80" height="40" as="geometry" />
        </mxCell>
        <mxCell id="3qK1IjJWASK3sHePoez1-122" value="&lt;h1 style=&quot;margin-top: 0px;&quot;&gt;.jar addon mods&lt;/h1&gt;&lt;p&gt;&lt;span style=&quot;text-align: center;&quot;&gt;Implements Archipelago location/item types and randomizer mechanics&lt;/span&gt;&lt;/p&gt;" style="text;html=1;whiteSpace=wrap;overflow=hidden;rounded=0;" parent="1" vertex="1">
          <mxGeometry x="1113" y="610" width="150" height="122" as="geometry" />
        </mxCell>
        <mxCell id="3qK1IjJWASK3sHePoez1-123" value="&lt;h1 style=&quot;margin-top: 0px;&quot;&gt;.jar base mod&lt;/h1&gt;&lt;p&gt;&lt;span style=&quot;text-align: center;&quot;&gt;Implements Archipelago location/item types and randomizer mechanics&lt;/span&gt;&lt;/p&gt;" style="text;html=1;whiteSpace=wrap;overflow=hidden;rounded=0;" parent="1" vertex="1">
          <mxGeometry x="874" y="610" width="150" height="122" as="geometry" />
        </mxCell>
        <mxCell id="3qK1IjJWASK3sHePoez1-124" value="&lt;h1 style=&quot;margin-top: 0px;&quot;&gt;.apworld logic files&lt;/h1&gt;&lt;p&gt;&lt;span style=&quot;text-align: center;&quot;&gt;Defines and connects Archipelago locations and items&lt;/span&gt;&lt;/p&gt;" style="text;html=1;whiteSpace=wrap;overflow=hidden;rounded=0;" parent="1" vertex="1">
          <mxGeometry x="-350" y="710" width="226" height="89" as="geometry" />
        </mxCell>
        <mxCell id="3qK1IjJWASK3sHePoez1-125" value="&lt;h1 style=&quot;margin-top: 0px;&quot;&gt;.apmcbundle&lt;/h1&gt;&lt;p&gt;&lt;span style=&quot;text-align: center;&quot;&gt;Schema for server/client files, which are either downloaded and set up by mcman, dropped into Prism, or patched onto an existing Prism instance&lt;/span&gt;&lt;/p&gt;" style="text;html=1;whiteSpace=wrap;overflow=hidden;rounded=0;" parent="1" vertex="1">
          <mxGeometry x="83.00000000000006" width="320" height="97" as="geometry" />
        </mxCell>
        <mxCell id="3qK1IjJWASK3sHePoez1-128" value="Communicates&lt;div&gt;with&lt;/div&gt;" style="text;html=1;align=right;verticalAlign=middle;resizable=0;points=[];autosize=1;strokeColor=none;fillColor=none;" parent="1" vertex="1">
          <mxGeometry x="830" y="421" width="100" height="40" as="geometry" />
        </mxCell>
        <mxCell id="JrtcDTEkCT0BP77rKWEM-1" value="Added to" style="text;html=1;align=center;verticalAlign=middle;whiteSpace=wrap;rounded=0;" parent="1" vertex="1">
          <mxGeometry x="27" y="539" width="60" height="30" as="geometry" />
        </mxCell>
        <mxCell id="JrtcDTEkCT0BP77rKWEM-7" style="edgeStyle=orthogonalEdgeStyle;rounded=0;orthogonalLoop=1;jettySize=auto;html=1;" parent="1" source="JrtcDTEkCT0BP77rKWEM-4" target="3qK1IjJWASK3sHePoez1-61" edge="1">
          <mxGeometry relative="1" as="geometry" />
        </mxCell>
        <UserObject label="Player file&lt;div&gt;reading/generating&lt;br&gt;&lt;div&gt;(.yaml)&lt;/div&gt;&lt;/div&gt;" link="Root&#xa;__init__.py" id="JrtcDTEkCT0BP77rKWEM-4">
          <mxCell style="rounded=0;whiteSpace=wrap;html=1;" parent="1" vertex="1">
            <mxGeometry x="-112" y="650" width="120" height="70" as="geometry" />
          </mxCell>
        </UserObject>
        <mxCell id="JrtcDTEkCT0BP77rKWEM-8" value="Generates and&lt;div&gt;reads&lt;/div&gt;" style="text;html=1;align=left;verticalAlign=middle;whiteSpace=wrap;rounded=0;" parent="1" vertex="1">
          <mxGeometry x="-74" y="609" width="87" height="30" as="geometry" />
        </mxCell>
        <mxCell id="yQT3kaWr7d13z7m8vqf4-26" style="edgeStyle=orthogonalEdgeStyle;rounded=0;orthogonalLoop=1;jettySize=auto;html=1;" edge="1" parent="1" source="yQT3kaWr7d13z7m8vqf4-5" target="3qK1IjJWASK3sHePoez1-19">
          <mxGeometry relative="1" as="geometry" />
        </mxCell>
        <mxCell id="yQT3kaWr7d13z7m8vqf4-5" value="Output data&lt;div&gt;schema for&lt;/div&gt;&lt;div&gt;locations and items&lt;/div&gt;" style="shape=document;whiteSpace=wrap;html=1;boundedLbl=1;" vertex="1" parent="1">
          <mxGeometry x="102" y="275.5" width="95" height="100" as="geometry" />
        </mxCell>
        <mxCell id="yQT3kaWr7d13z7m8vqf4-23" style="edgeStyle=orthogonalEdgeStyle;rounded=0;orthogonalLoop=1;jettySize=auto;html=1;" edge="1" parent="1" source="yQT3kaWr7d13z7m8vqf4-11" target="yQT3kaWr7d13z7m8vqf4-19">
          <mxGeometry relative="1" as="geometry" />
        </mxCell>
        <mxCell id="yQT3kaWr7d13z7m8vqf4-11" value="&lt;div&gt;packwiz folder&lt;/div&gt;&lt;div&gt;for modpack&lt;/div&gt;&lt;div&gt;overrides&lt;/div&gt;" style="shape=document;whiteSpace=wrap;html=1;boundedLbl=1;" vertex="1" parent="1">
          <mxGeometry x="-205" y="275.5" width="95" height="80" as="geometry" />
        </mxCell>
        <mxCell id="yQT3kaWr7d13z7m8vqf4-22" style="edgeStyle=orthogonalEdgeStyle;rounded=0;orthogonalLoop=1;jettySize=auto;html=1;" edge="1" parent="1" source="yQT3kaWr7d13z7m8vqf4-12" target="yQT3kaWr7d13z7m8vqf4-19">
          <mxGeometry relative="1" as="geometry" />
        </mxCell>
        <mxCell id="yQT3kaWr7d13z7m8vqf4-12" value="&lt;div&gt;Link to&lt;/div&gt;&lt;div&gt;CurseForge/&lt;/div&gt;&lt;div&gt;Modrinth&lt;/div&gt;&lt;div&gt;modpack&lt;/div&gt;" style="shape=document;whiteSpace=wrap;html=1;boundedLbl=1;" vertex="1" parent="1">
          <mxGeometry x="-92.00000000000011" y="275.5" width="95" height="100" as="geometry" />
        </mxCell>
        <mxCell id="yQT3kaWr7d13z7m8vqf4-14" value="&lt;h1 style=&quot;margin-top: 0px;&quot;&gt;.apworld modpack schema&lt;/h1&gt;&lt;p&gt;&lt;span style=&quot;text-align: center;&quot;&gt;Defines modpack download source and randomizer-specific overrides&lt;/span&gt;&lt;/p&gt;" style="text;html=1;whiteSpace=wrap;overflow=hidden;rounded=0;" vertex="1" parent="1">
          <mxGeometry x="-267" width="270" height="110" as="geometry" />
        </mxCell>
        <mxCell id="yQT3kaWr7d13z7m8vqf4-15" style="edgeStyle=orthogonalEdgeStyle;rounded=0;orthogonalLoop=1;jettySize=auto;html=1;" edge="1" parent="1" source="3qK1IjJWASK3sHePoez1-61" target="3qK1IjJWASK3sHePoez1-20">
          <mxGeometry relative="1" as="geometry">
            <Array as="points">
              <mxPoint x="206" y="420" />
              <mxPoint x="262" y="420" />
            </Array>
          </mxGeometry>
        </mxCell>
        <mxCell id="yQT3kaWr7d13z7m8vqf4-16" style="edgeStyle=orthogonalEdgeStyle;rounded=0;orthogonalLoop=1;jettySize=auto;html=1;" edge="1" parent="1" source="3qK1IjJWASK3sHePoez1-61" target="yQT3kaWr7d13z7m8vqf4-5">
          <mxGeometry relative="1" as="geometry">
            <Array as="points">
              <mxPoint x="206" y="420" />
              <mxPoint x="150" y="420" />
            </Array>
          </mxGeometry>
        </mxCell>
        <mxCell id="yQT3kaWr7d13z7m8vqf4-17" value="Generates" style="text;html=1;align=center;verticalAlign=middle;whiteSpace=wrap;rounded=0;" vertex="1" parent="1">
          <mxGeometry x="176" y="391" width="60" height="30" as="geometry" />
        </mxCell>
        <mxCell id="yQT3kaWr7d13z7m8vqf4-25" style="edgeStyle=orthogonalEdgeStyle;rounded=0;orthogonalLoop=1;jettySize=auto;html=1;" edge="1" parent="1" source="yQT3kaWr7d13z7m8vqf4-19" target="3qK1IjJWASK3sHePoez1-19">
          <mxGeometry relative="1" as="geometry" />
        </mxCell>
        <mxCell id="yQT3kaWr7d13z7m8vqf4-19" value="&lt;div&gt;mcman folder&lt;/div&gt;&lt;div&gt;for server&lt;/div&gt;&lt;div&gt;generation&lt;/div&gt;" style="shape=document;whiteSpace=wrap;html=1;boundedLbl=1;" vertex="1" parent="1">
          <mxGeometry x="-150" y="135.5" width="95" height="80" as="geometry" />
        </mxCell>
        <mxCell id="yQT3kaWr7d13z7m8vqf4-28" value="Bundled&amp;nbsp;&lt;span style=&quot;background-color: transparent; color: light-dark(rgb(0, 0, 0), rgb(255, 255, 255));&quot;&gt;into&lt;/span&gt;" style="text;html=1;align=center;verticalAlign=middle;whiteSpace=wrap;rounded=0;" vertex="1" parent="1">
          <mxGeometry x="-44" y="150" width="60" height="30" as="geometry" />
        </mxCell>
        <mxCell id="yQT3kaWr7d13z7m8vqf4-34" value="Bundled&amp;nbsp;&lt;span style=&quot;background-color: transparent; color: light-dark(rgb(0, 0, 0), rgb(255, 255, 255));&quot;&gt;into&lt;/span&gt;" style="text;html=1;align=center;verticalAlign=middle;whiteSpace=wrap;rounded=0;" vertex="1" parent="1">
          <mxGeometry x="218" y="227" width="60" height="30" as="geometry" />
        </mxCell>
        <mxCell id="yQT3kaWr7d13z7m8vqf4-48" style="edgeStyle=orthogonalEdgeStyle;rounded=0;orthogonalLoop=1;jettySize=auto;html=1;" edge="1" parent="1" source="yQT3kaWr7d13z7m8vqf4-39" target="3qK1IjJWASK3sHePoez1-13">
          <mxGeometry relative="1" as="geometry" />
        </mxCell>
        <mxCell id="yQT3kaWr7d13z7m8vqf4-39" value="Prism Launcher" style="shape=manualInput;whiteSpace=wrap;html=1;" vertex="1" parent="1">
          <mxGeometry x="437" y="732" width="103" height="78" as="geometry" />
        </mxCell>
        <mxCell id="yQT3kaWr7d13z7m8vqf4-49" style="edgeStyle=orthogonalEdgeStyle;rounded=0;orthogonalLoop=1;jettySize=auto;html=1;" edge="1" parent="1" source="3qK1IjJWASK3sHePoez1-15" target="yQT3kaWr7d13z7m8vqf4-39">
          <mxGeometry relative="1" as="geometry" />
        </mxCell>
        <mxCell id="3qK1IjJWASK3sHePoez1-15" value="&lt;div&gt;&lt;br&gt;&lt;/div&gt;&lt;div&gt;&lt;br&gt;&lt;/div&gt;&lt;div&gt;&lt;br&gt;&lt;/div&gt;&lt;div&gt;&lt;br&gt;&lt;/div&gt;Instance&lt;div&gt;manager&lt;/div&gt;&lt;div&gt;(KivyMD)&lt;/div&gt;" style="shape=manualInput;whiteSpace=wrap;html=1;" parent="1" vertex="1">
          <mxGeometry x="437" y="503" width="103" height="125" as="geometry" />
        </mxCell>
        <mxCell id="yQT3kaWr7d13z7m8vqf4-38" value="" style="sketch=0;verticalLabelPosition=bottom;sketch=0;aspect=fixed;html=1;verticalAlign=top;align=center;outlineConnect=0;pointerEvents=1;shape=mxgraph.citrix2.workspace_environment_management2;fillColor=none;" vertex="1" parent="1">
          <mxGeometry x="472.90999999999997" y="535" width="31.18" height="32.5" as="geometry" />
        </mxCell>
        <mxCell id="yQT3kaWr7d13z7m8vqf4-50" value="Generates patched modpack, or&lt;div&gt;patches pre-existing instance for&lt;/div&gt;" style="text;html=1;align=left;verticalAlign=middle;whiteSpace=wrap;rounded=0;" vertex="1" parent="1">
          <mxGeometry x="497" y="649" width="150" height="64" as="geometry" />
        </mxCell>
      </root>
    </mxGraphModel>
  </diagram>
</mxfile>
